<?xml version="1.0" encoding="utf-8"?>
<!-- Generator: Adobe Illustrator 25.4.1, SVG Export Plug-In . SVG Version: 6.00 Build 0)  -->
<svg version="1.1" id="Capa_1" xmlns="http://www.w3.org/2000/svg" xmlns:xlink="http://www.w3.org/1999/xlink" x="0px" y="0px"
	 viewBox="0 0 200 200" style="enable-background:new 0 0 200 200;" xml:space="preserve">
<style type="text/css">
	.st0{fill:#F7F5F5;}
</style>
<path class="st0" d="M0.8,5L5,0.8L9.3,5L5,9.2L0.8,5z"/>
<path class="st0" d="M0.8,15L5,10.8L9.3,15L5,19.2L0.8,15z"/>
<path class="st0" d="M0.8,25L5,20.8L9.3,25L5,29.2L0.8,25z"/>
<path class="st0" d="M0.8,35L5,30.8L9.3,35L5,39.2L0.8,35z"/>
<path class="st0" d="M0.8,45L5,40.8L9.3,45L5,49.2L0.8,45z"/>
<path class="st0" d="M0.8,55L5,50.8L9.3,55L5,59.2L0.8,55z"/>
<path class="st0" d="M0.8,65L5,60.8L9.3,65L5,69.2L0.8,65z"/>
<path class="st0" d="M0.8,75L5,70.8L9.3,75L5,79.2L0.8,75z"/>
<path class="st0" d="M0.8,85L5,80.8L9.3,85L5,89.2L0.8,85z"/>
<path class="st0" d="M0.8,95L5,90.8L9.3,95L5,99.2L0.8,95z"/>
<path class="st0" d="M0.8,105l4.2-4.2l4.2,4.2L5,109.2L0.8,105z"/>
<path class="st0" d="M0.8,115l4.2-4.2l4.2,4.2L5,119.2L0.8,115z"/>
<path class="st0" d="M0.8,125l4.2-4.2l4.2,4.2L5,129.2L0.8,125z"/>
<path class="st0" d="M0.8,135l4.2-4.2l4.2,4.2L5,139.2L0.8,135z"/>
<path class="st0" d="M0.8,145l4.2-4.2l4.2,4.2L5,149.2L0.8,145z"/>
<path class="st0" d="M0.8,155l4.2-4.2l4.2,4.2L5,159.2L0.8,155z"/>
<path class="st0" d="M0.8,165l4.2-4.2l4.2,4.2L5,169.2L0.8,165z"/>
<path class="st0" d="M0.8,175l4.2-4.2l4.2,4.2L5,179.2L0.8,175z"/>
<path class="st0" d="M0.8,185l4.2-4.2l4.2,4.2L5,189.2L0.8,185z"/>
<path class="st0" d="M0.8,195l4.2-4.2l4.2,4.2L5,199.2L0.8,195z"/>
<path class="st0" d="M11.1,5L15,1.1L18.9,5L15,8.9L11.1,5z"/>
<path class="st0" d="M11.1,15l3.9-3.9l3.9,3.9L15,18.9L11.1,15z"/>
<path class="st0" d="M11.1,25l3.9-3.9l3.9,3.9L15,28.9L11.1,25z"/>
<path class="st0" d="M11.1,35l3.9-3.9l3.9,3.9L15,38.9L11.1,35z"/>
<path class="st0" d="M11.1,45l3.9-3.9l3.9,3.9L15,48.9L11.1,45z"/>
<path class="st0" d="M11.1,55l3.9-3.9l3.9,3.9L15,58.9L11.1,55z"/>
<path class="st0" d="M11.1,65l3.9-3.9l3.9,3.9L15,68.9L11.1,65z"/>
<path class="st0" d="M11.1,75l3.9-3.9l3.9,3.9L15,78.9L11.1,75z"/>
<path class="st0" d="M11.1,85l3.9-3.9l3.9,3.9L15,88.9L11.1,85z"/>
<path class="st0" d="M11.1,95l3.9-3.9l3.9,3.9L15,98.9L11.1,95z"/>
<path class="st0" d="M11.1,105l3.9-3.9l3.9,3.9l-3.9,3.9L11.1,105z"/>
<path class="st0" d="M11.1,115l3.9-3.9l3.9,3.9l-3.9,3.9L11.1,115z"/>
<path class="st0" d="M11.1,125l3.9-3.9l3.9,3.9l-3.9,3.9L11.1,125z"/>
<path class="st0" d="M11.1,135l3.9-3.9l3.9,3.9l-3.9,3.9L11.1,135z"/>
<path class="st0" d="M11.1,145l3.9-3.9l3.9,3.9l-3.9,3.9L11.1,145z"/>
<path class="st0" d="M11.1,155l3.9-3.9l3.9,3.9l-3.9,3.9L11.1,155z"/>
<path class="st0" d="M11.1,165l3.9-3.9l3.9,3.9l-3.9,3.9L11.1,165z"/>
<path class="st0" d="M11.1,175l3.9-3.9l3.9,3.9l-3.9,3.9L11.1,175z"/>
<path class="st0" d="M11.1,185l3.9-3.9l3.9,3.9l-3.9,3.9L11.1,185z"/>
<path class="st0" d="M11.1,195l3.9-3.9l3.9,3.9l-3.9,3.9L11.1,195z"/>
<path class="st0" d="M21.4,5L25,1.4L28.6,5L25,8.6L21.4,5z"/>
<path class="st0" d="M21.4,15l3.6-3.6l3.6,3.6L25,18.6L21.4,15z"/>
<path class="st0" d="M21.4,25l3.6-3.6l3.6,3.6L25,28.6L21.4,25z"/>
<path class="st0" d="M21.4,35l3.6-3.6l3.6,3.6L25,38.6L21.4,35z"/>
<path class="st0" d="M21.4,45l3.6-3.6l3.6,3.6L25,48.6L21.4,45z"/>
<path class="st0" d="M21.4,55l3.6-3.6l3.6,3.6L25,58.6L21.4,55z"/>
<path class="st0" d="M21.4,65l3.6-3.6l3.6,3.6L25,68.6L21.4,65z"/>
<path class="st0" d="M21.4,75l3.6-3.6l3.6,3.6L25,78.6L21.4,75z"/>
<path class="st0" d="M21.4,85l3.6-3.6l3.6,3.6L25,88.6L21.4,85z"/>
<path class="st0" d="M21.4,95l3.6-3.6l3.6,3.6L25,98.6L21.4,95z"/>
<path class="st0" d="M21.4,105l3.6-3.6l3.6,3.6l-3.6,3.6L21.4,105z"/>
<path class="st0" d="M21.4,115l3.6-3.6l3.6,3.6l-3.6,3.6L21.4,115z"/>
<path class="st0" d="M21.4,125l3.6-3.6l3.6,3.6l-3.6,3.6L21.4,125z"/>
<path class="st0" d="M21.4,135l3.6-3.6l3.6,3.6l-3.6,3.6L21.4,135z"/>
<path class="st0" d="M21.4,145l3.6-3.6l3.6,3.6l-3.6,3.6L21.4,145z"/>
<path class="st0" d="M21.4,155l3.6-3.6l3.6,3.6l-3.6,3.6L21.4,155z"/>
<path class="st0" d="M21.4,165l3.6-3.6l3.6,3.6l-3.6,3.6L21.4,165z"/>
<path class="st0" d="M21.4,175l3.6-3.6l3.6,3.6l-3.6,3.6L21.4,175z"/>
<path class="st0" d="M21.4,185l3.6-3.6l3.6,3.6l-3.6,3.6L21.4,185z"/>
<path class="st0" d="M21.4,195l3.6-3.6l3.6,3.6l-3.6,3.6L21.4,195z"/>
<path class="st0" d="M31.8,5L35,1.8L38.2,5L35,8.2L31.8,5z"/>
<path class="st0" d="M31.8,15l3.2-3.2l3.2,3.2L35,18.2L31.8,15z"/>
<path class="st0" d="M31.8,25l3.2-3.2l3.2,3.2L35,28.2L31.8,25z"/>
<path class="st0" d="M31.8,35l3.2-3.2l3.2,3.2L35,38.2L31.8,35z"/>
<path class="st0" d="M31.8,45l3.2-3.2l3.2,3.2L35,48.2L31.8,45z"/>
<path class="st0" d="M31.8,55l3.2-3.2l3.2,3.2L35,58.2L31.8,55z"/>
<path class="st0" d="M31.8,65l3.2-3.2l3.2,3.2L35,68.2L31.8,65z"/>
<path class="st0" d="M31.8,75l3.2-3.2l3.2,3.2L35,78.2L31.8,75z"/>
<path class="st0" d="M31.8,85l3.2-3.2l3.2,3.2L35,88.2L31.8,85z"/>
<path class="st0" d="M31.8,95l3.2-3.2l3.2,3.2L35,98.2L31.8,95z"/>
<path class="st0" d="M31.8,105l3.2-3.2l3.2,3.2l-3.2,3.2L31.8,105z"/>
<path class="st0" d="M31.8,115l3.2-3.2l3.2,3.2l-3.2,3.2L31.8,115z"/>
<path class="st0" d="M31.8,125l3.2-3.2l3.2,3.2l-3.2,3.2L31.8,125z"/>
<path class="st0" d="M31.8,135l3.2-3.2l3.2,3.2l-3.2,3.2L31.8,135z"/>
<path class="st0" d="M31.8,145l3.2-3.2l3.2,3.2l-3.2,3.2L31.8,145z"/>
<path class="st0" d="M31.8,155l3.2-3.2l3.2,3.2l-3.2,3.2L31.8,155z"/>
<path class="st0" d="M31.8,165l3.2-3.2l3.2,3.2l-3.2,3.2L31.8,165z"/>
<path class="st0" d="M31.8,175l3.2-3.2l3.2,3.2l-3.2,3.2L31.8,175z"/>
<path class="st0" d="M31.8,185l3.2-3.2l3.2,3.2l-3.2,3.2L31.8,185z"/>
<path class="st0" d="M31.8,195l3.2-3.2l3.2,3.2l-3.2,3.2L31.8,195z"/>
<path class="st0" d="M42.1,5L45,2.1L47.9,5L45,7.9L42.1,5z"/>
<path class="st0" d="M42.1,15l2.9-2.9l2.9,2.9L45,17.9L42.1,15z"/>
<path class="st0" d="M42.1,25l2.9-2.9l2.9,2.9L45,27.9L42.1,25z"/>
<path class="st0" d="M42.1,35l2.9-2.9l2.9,2.9L45,37.9L42.1,35z"/>
<path class="st0" d="M42.1,45l2.9-2.9l2.9,2.9L45,47.9L42.1,45z"/>
<path class="st0" d="M42.1,55l2.9-2.9l2.9,2.9L45,57.9L42.1,55z"/>
<path class="st0" d="M42.1,65l2.9-2.9l2.9,2.9L45,67.9L42.1,65z"/>
<path class="st0" d="M42.1,75l2.9-2.9l2.9,2.9L45,77.9L42.1,75z"/>
<path class="st0" d="M42.1,85l2.9-2.9l2.9,2.9L45,87.9L42.1,85z"/>
<path class="st0" d="M42.1,95l2.9-2.9l2.9,2.9L45,97.9L42.1,95z"/>
<path class="st0" d="M42.1,105l2.9-2.9l2.9,2.9l-2.9,2.9L42.1,105z"/>
<path class="st0" d="M42.1,115l2.9-2.9l2.9,2.9l-2.9,2.9L42.1,115z"/>
<path class="st0" d="M42.1,125l2.9-2.9l2.9,2.9l-2.9,2.9L42.1,125z"/>
<path class="st0" d="M42.1,135l2.9-2.9l2.9,2.9l-2.9,2.9L42.1,135z"/>
<path class="st0" d="M42.1,145l2.9-2.9l2.9,2.9l-2.9,2.9L42.1,145z"/>
<path class="st0" d="M42.1,155l2.9-2.9l2.9,2.9l-2.9,2.9L42.1,155z"/>
<path class="st0" d="M42.1,165l2.9-2.9l2.9,2.9l-2.9,2.9L42.1,165z"/>
<path class="st0" d="M42.1,175l2.9-2.9l2.9,2.9l-2.9,2.9L42.1,175z"/>
<path class="st0" d="M42.1,185l2.9-2.9l2.9,2.9l-2.9,2.9L42.1,185z"/>
<path class="st0" d="M42.1,195l2.9-2.9l2.9,2.9l-2.9,2.9L42.1,195z"/>
<path class="st0" d="M52.5,5L55,2.4L57.6,5L55,7.6L52.5,5z"/>
<path class="st0" d="M52.5,15l2.6-2.6l2.6,2.6L55,17.6L52.5,15z"/>
<path class="st0" d="M52.5,25l2.6-2.6l2.6,2.6L55,27.6L52.5,25z"/>
<path class="st0" d="M52.5,35l2.6-2.6l2.6,2.6L55,37.6L52.5,35z"/>
<path class="st0" d="M52.5,45l2.6-2.6l2.6,2.6L55,47.6L52.5,45z"/>
<path class="st0" d="M52.5,55l2.6-2.6l2.6,2.6L55,57.6L52.5,55z"/>
<path class="st0" d="M52.5,65l2.6-2.6l2.6,2.6L55,67.6L52.5,65z"/>
<path class="st0" d="M52.5,75l2.6-2.6l2.6,2.6L55,77.6L52.5,75z"/>
<path class="st0" d="M52.5,85l2.6-2.6l2.6,2.6L55,87.6L52.5,85z"/>
<path class="st0" d="M52.5,95l2.6-2.6l2.6,2.6L55,97.6L52.5,95z"/>
<path class="st0" d="M52.5,105l2.6-2.6l2.6,2.6l-2.6,2.6L52.5,105z"/>
<path class="st0" d="M52.5,115l2.6-2.6l2.6,2.6l-2.6,2.6L52.5,115z"/>
<path class="st0" d="M52.5,125l2.6-2.6l2.6,2.6l-2.6,2.6L52.5,125z"/>
<path class="st0" d="M52.5,135l2.6-2.6l2.6,2.6l-2.6,2.6L52.5,135z"/>
<path class="st0" d="M52.5,145l2.6-2.6l2.6,2.6l-2.6,2.6L52.5,145z"/>
<path class="st0" d="M52.5,155l2.6-2.6l2.6,2.6l-2.6,2.6L52.5,155z"/>
<path class="st0" d="M52.5,165l2.6-2.6l2.6,2.6l-2.6,2.6L52.5,165z"/>
<path class="st0" d="M52.5,175l2.6-2.6l2.6,2.6l-2.6,2.6L52.5,175z"/>
<path class="st0" d="M52.5,185l2.6-2.6l2.6,2.6l-2.6,2.6L52.5,185z"/>
<path class="st0" d="M52.5,195l2.6-2.6l2.6,2.6l-2.6,2.6L52.5,195z"/>
<path class="st0" d="M62.8,5L65,2.8L67.2,5L65,7.2L62.8,5z"/>
<path class="st0" d="M62.8,15l2.2-2.2l2.2,2.2L65,17.2L62.8,15z"/>
<path class="st0" d="M62.8,25l2.2-2.2l2.2,2.2L65,27.2L62.8,25z"/>
<path class="st0" d="M62.8,35l2.2-2.2l2.2,2.2L65,37.2L62.8,35z"/>
<path class="st0" d="M62.8,45l2.2-2.2l2.2,2.2L65,47.2L62.8,45z"/>
<path class="st0" d="M62.8,55l2.2-2.2l2.2,2.2L65,57.2L62.8,55z"/>
<path class="st0" d="M62.8,65l2.2-2.2l2.2,2.2L65,67.2L62.8,65z"/>
<path class="st0" d="M62.8,75l2.2-2.2l2.2,2.2L65,77.2L62.8,75z"/>
<path class="st0" d="M62.8,85l2.2-2.2l2.2,2.2L65,87.2L62.8,85z"/>
<path class="st0" d="M62.8,95l2.2-2.2l2.2,2.2L65,97.2L62.8,95z"/>
<path class="st0" d="M62.8,105l2.2-2.2l2.2,2.2l-2.2,2.2L62.8,105z"/>
<path class="st0" d="M62.8,115l2.2-2.2l2.2,2.2l-2.2,2.2L62.8,115z"/>
<path class="st0" d="M62.8,125l2.2-2.2l2.2,2.2l-2.2,2.2L62.8,125z"/>
<path class="st0" d="M62.8,135l2.2-2.2l2.2,2.2l-2.2,2.2L62.8,135z"/>
<path class="st0" d="M62.8,145l2.2-2.2l2.2,2.2l-2.2,2.2L62.8,145z"/>
<path class="st0" d="M62.8,155l2.2-2.2l2.2,2.2l-2.2,2.2L62.8,155z"/>
<path class="st0" d="M62.8,165l2.2-2.2l2.2,2.2l-2.2,2.2L62.8,165z"/>
<path class="st0" d="M62.8,175l2.2-2.2l2.2,2.2l-2.2,2.2L62.8,175z"/>
<path class="st0" d="M62.8,185l2.2-2.2l2.2,2.2l-2.2,2.2L62.8,185z"/>
<path class="st0" d="M62.8,195l2.2-2.2l2.2,2.2l-2.2,2.2L62.8,195z"/>
<path class="st0" d="M73.1,5L75,3.1L76.9,5L75,6.9L73.1,5z"/>
<path class="st0" d="M73.1,15l1.9-1.9l1.9,1.9L75,16.9L73.1,15z"/>
<path class="st0" d="M73.1,25l1.9-1.9l1.9,1.9L75,26.9L73.1,25z"/>
<path class="st0" d="M73.1,35l1.9-1.9l1.9,1.9L75,36.9L73.1,35z"/>
<path class="st0" d="M73.1,45l1.9-1.9l1.9,1.9L75,46.9L73.1,45z"/>
<path class="st0" d="M73.1,55l1.9-1.9l1.9,1.9L75,56.9L73.1,55z"/>
<path class="st0" d="M73.1,65l1.9-1.9l1.9,1.9L75,66.9L73.1,65z"/>
<path class="st0" d="M73.1,75l1.9-1.9l1.9,1.9L75,76.9L73.1,75z"/>
<path class="st0" d="M73.1,85l1.9-1.9l1.9,1.9L75,86.9L73.1,85z"/>
<path class="st0" d="M73.1,95l1.9-1.9l1.9,1.9L75,96.9L73.1,95z"/>
<path class="st0" d="M73.1,105l1.9-1.9l1.9,1.9l-1.9,1.9L73.1,105z"/>
<path class="st0" d="M73.1,115l1.9-1.9l1.9,1.9l-1.9,1.9L73.1,115z"/>
<path class="st0" d="M73.1,125l1.9-1.9l1.9,1.9l-1.9,1.9L73.1,125z"/>
<path class="st0" d="M73.1,135l1.9-1.9l1.9,1.9l-1.9,1.9L73.1,135z"/>
<path class="st0" d="M73.1,145l1.9-1.9l1.9,1.9l-1.9,1.9L73.1,145z"/>
<path class="st0" d="M73.1,155l1.9-1.9l1.9,1.9l-1.9,1.9L73.1,155z"/>
<path class="st0" d="M73.1,165l1.9-1.9l1.9,1.9l-1.9,1.9L73.1,165z"/>
<path class="st0" d="M73.1,175l1.9-1.9l1.9,1.9l-1.9,1.9L73.1,175z"/>
<path class="st0" d="M73.1,185l1.9-1.9l1.9,1.9l-1.9,1.9L73.1,185z"/>
<path class="st0" d="M73.1,195l1.9-1.9l1.9,1.9l-1.9,1.9L73.1,195z"/>
<path class="st0" d="M83.5,5L85,3.5L86.5,5L85,6.5L83.5,5z"/>
<path class="st0" d="M83.5,15l1.5-1.5l1.5,1.5L85,16.5L83.5,15z"/>
<path class="st0" d="M83.5,25l1.5-1.5l1.5,1.5L85,26.5L83.5,25z"/>
<path class="st0" d="M83.5,35l1.5-1.5l1.5,1.5L85,36.5L83.5,35z"/>
<path class="st0" d="M83.5,45l1.5-1.5l1.5,1.5L85,46.5L83.5,45z"/>
<path class="st0" d="M83.5,55l1.5-1.5l1.5,1.5L85,56.5L83.5,55z"/>
<path class="st0" d="M83.5,65l1.5-1.5l1.5,1.5L85,66.5L83.5,65z"/>
<path class="st0" d="M83.5,75l1.5-1.5l1.5,1.5L85,76.5L83.5,75z"/>
<path class="st0" d="M83.5,85l1.5-1.5l1.5,1.5L85,86.5L83.5,85z"/>
<path class="st0" d="M83.5,95l1.5-1.5l1.5,1.5L85,96.5L83.5,95z"/>
<path class="st0" d="M83.5,105l1.5-1.5l1.5,1.5l-1.5,1.5L83.5,105z"/>
<path class="st0" d="M83.5,115l1.5-1.5l1.5,1.5l-1.5,1.5L83.5,115z"/>
<path class="st0" d="M83.5,125l1.5-1.5l1.5,1.5l-1.5,1.5L83.5,125z"/>
<path class="st0" d="M83.5,135l1.5-1.5l1.5,1.5l-1.5,1.5L83.5,135z"/>
<path class="st0" d="M83.5,145l1.5-1.5l1.5,1.5l-1.5,1.5L83.5,145z"/>
<path class="st0" d="M83.5,155l1.5-1.5l1.5,1.5l-1.5,1.5L83.5,155z"/>
<path class="st0" d="M83.5,165l1.5-1.5l1.5,1.5l-1.5,1.5L83.5,165z"/>
<path class="st0" d="M83.5,175l1.5-1.5l1.5,1.5l-1.5,1.5L83.5,175z"/>
<path class="st0" d="M83.5,185l1.5-1.5l1.5,1.5l-1.5,1.5L83.5,185z"/>
<path class="st0" d="M83.5,195l1.5-1.5l1.5,1.5l-1.5,1.5L83.5,195z"/>
<path class="st0" d="M93.8,5L95,3.8L96.2,5L95,6.2L93.8,5z"/>
<path class="st0" d="M93.8,15l1.2-1.2l1.2,1.2L95,16.2L93.8,15z"/>
<path class="st0" d="M93.8,25l1.2-1.2l1.2,1.2L95,26.2L93.8,25z"/>
<path class="st0" d="M93.8,35l1.2-1.2l1.2,1.2L95,36.2L93.8,35z"/>
<path class="st0" d="M93.8,45l1.2-1.2l1.2,1.2L95,46.2L93.8,45z"/>
<path class="st0" d="M93.8,55l1.2-1.2l1.2,1.2L95,56.2L93.8,55z"/>
<path class="st0" d="M93.8,65l1.2-1.2l1.2,1.2L95,66.2L93.8,65z"/>
<path class="st0" d="M93.8,75l1.2-1.2l1.2,1.2L95,76.2L93.8,75z"/>
<path class="st0" d="M93.8,85l1.2-1.2l1.2,1.2L95,86.2L93.8,85z"/>
<path class="st0" d="M93.8,95l1.2-1.2l1.2,1.2L95,96.2L93.8,95z"/>
<path class="st0" d="M93.8,105l1.2-1.2l1.2,1.2l-1.2,1.2L93.8,105z"/>
<path class="st0" d="M93.8,115l1.2-1.2l1.2,1.2l-1.2,1.2L93.8,115z"/>
<path class="st0" d="M93.8,125l1.2-1.2l1.2,1.2l-1.2,1.2L93.8,125z"/>
<path class="st0" d="M93.8,135l1.2-1.2l1.2,1.2l-1.2,1.2L93.8,135z"/>
<path class="st0" d="M93.8,145l1.2-1.2l1.2,1.2l-1.2,1.2L93.8,145z"/>
<path class="st0" d="M93.8,155l1.2-1.2l1.2,1.2l-1.2,1.2L93.8,155z"/>
<path class="st0" d="M93.8,165l1.2-1.2l1.2,1.2l-1.2,1.2L93.8,165z"/>
<path class="st0" d="M93.8,175l1.2-1.2l1.2,1.2l-1.2,1.2L93.8,175z"/>
<path class="st0" d="M93.8,185l1.2-1.2l1.2,1.2l-1.2,1.2L93.8,185z"/>
<path class="st0" d="M93.8,195l1.2-1.2l1.2,1.2l-1.2,1.2L93.8,195z"/>
<path class="st0" d="M-4.2,0L0-4.2L4.3,0L0,4.2L-4.2,0z"/>
<path class="st0" d="M-4.2,10L0,5.8L4.3,10L0,14.2L-4.2,10z"/>
<path class="st0" d="M-4.2,20L0,15.8L4.3,20L0,24.2L-4.2,20z"/>
<path class="st0" d="M-4.2,30L0,25.8L4.3,30L0,34.2L-4.2,30z"/>
<path class="st0" d="M-4.2,40L0,35.8L4.3,40L0,44.2L-4.2,40z"/>
<path class="st0" d="M-4.2,50L0,45.8L4.3,50L0,54.2L-4.2,50z"/>
<path class="st0" d="M-4.2,60L0,55.8L4.3,60L0,64.2L-4.2,60z"/>
<path class="st0" d="M-4.2,70L0,65.8L4.3,70L0,74.2L-4.2,70z"/>
<path class="st0" d="M-4.2,80L0,75.8L4.3,80L0,84.2L-4.2,80z"/>
<path class="st0" d="M-4.2,90L0,85.8L4.3,90L0,94.2L-4.2,90z"/>
<path class="st0" d="M-4.2,100L0,95.8l4.2,4.2L0,104.2L-4.2,100z"/>
<path class="st0" d="M-4.2,110l4.2-4.2l4.2,4.2L0,114.2L-4.2,110z"/>
<path class="st0" d="M-4.2,120l4.2-4.2l4.2,4.2L0,124.2L-4.2,120z"/>
<path class="st0" d="M-4.2,130l4.2-4.2l4.2,4.2L0,134.2L-4.2,130z"/>
<path class="st0" d="M-4.2,140l4.2-4.2l4.2,4.2L0,144.2L-4.2,140z"/>
<path class="st0" d="M-4.2,150l4.2-4.2l4.2,4.2L0,154.2L-4.2,150z"/>
<path class="st0" d="M-4.2,160l4.2-4.2l4.2,4.2L0,164.2L-4.2,160z"/>
<path class="st0" d="M-4.2,170l4.2-4.2l4.2,4.2L0,174.2L-4.2,170z"/>
<path class="st0" d="M-4.2,180l4.2-4.2l4.2,4.2L0,184.2L-4.2,180z"/>
<path class="st0" d="M-4.2,190l4.2-4.2l4.2,4.2L0,194.2L-4.2,190z"/>
<path class="st0" d="M-4.2,200l4.2-4.2l4.2,4.2L0,204.2L-4.2,200z"/>
<path class="st0" d="M5.9,0L10-4.1L14.1,0L10,4.1L5.9,0z"/>
<path class="st0" d="M5.9,10L10,5.9l4.1,4.1L10,14.1L5.9,10z"/>
<path class="st0" d="M5.9,20l4.1-4.1l4.1,4.1L10,24.1L5.9,20z"/>
<path class="st0" d="M5.9,30l4.1-4.1l4.1,4.1L10,34.1L5.9,30z"/>
<path class="st0" d="M5.9,40l4.1-4.1l4.1,4.1L10,44.1L5.9,40z"/>
<path class="st0" d="M5.9,50l4.1-4.1l4.1,4.1L10,54.1L5.9,50z"/>
<path class="st0" d="M5.9,60l4.1-4.1l4.1,4.1L10,64.1L5.9,60z"/>
<path class="st0" d="M5.9,70l4.1-4.1l4.1,4.1L10,74.1L5.9,70z"/>
<path class="st0" d="M5.9,80l4.1-4.1l4.1,4.1L10,84.1L5.9,80z"/>
<path class="st0" d="M5.9,90l4.1-4.1l4.1,4.1L10,94.1L5.9,90z"/>
<path class="st0" d="M5.9,100l4.1-4.1l4.1,4.1l-4.1,4.1L5.9,100z"/>
<path class="st0" d="M5.9,110l4.1-4.1l4.1,4.1l-4.1,4.1L5.9,110z"/>
<path class="st0" d="M5.9,120l4.1-4.1l4.1,4.1l-4.1,4.1L5.9,120z"/>
<path class="st0" d="M5.9,130l4.1-4.1l4.1,4.1l-4.1,4.1L5.9,130z"/>
<path class="st0" d="M5.9,140l4.1-4.1l4.1,4.1l-4.1,4.1L5.9,140z"/>
<path class="st0" d="M5.9,150l4.1-4.1l4.1,4.1l-4.1,4.1L5.9,150z"/>
<path class="st0" d="M5.9,160l4.1-4.1l4.1,4.1l-4.1,4.1L5.9,160z"/>
<path class="st0" d="M5.9,170l4.1-4.1l4.1,4.1l-4.1,4.1L5.9,170z"/>
<path class="st0" d="M5.9,180l4.1-4.1l4.1,4.1l-4.1,4.1L5.9,180z"/>
<path class="st0" d="M5.9,190l4.1-4.1l4.1,4.1l-4.1,4.1L5.9,190z"/>
<path class="st0" d="M5.9,200l4.1-4.1l4.1,4.1l-4.1,4.1L5.9,200z"/>
<path class="st0" d="M16.3,0L20-3.7L23.7,0L20,3.7L16.3,0z"/>
<path class="st0" d="M16.3,10L20,6.3l3.7,3.7L20,13.7L16.3,10z"/>
<path class="st0" d="M16.3,20l3.7-3.7l3.7,3.7L20,23.7L16.3,20z"/>
<path class="st0" d="M16.3,30l3.7-3.7l3.7,3.7L20,33.7L16.3,30z"/>
<path class="st0" d="M16.3,40l3.7-3.7l3.7,3.7L20,43.7L16.3,40z"/>
<path class="st0" d="M16.3,50l3.7-3.7l3.7,3.7L20,53.7L16.3,50z"/>
<path class="st0" d="M16.3,60l3.7-3.7l3.7,3.7L20,63.7L16.3,60z"/>
<path class="st0" d="M16.3,70l3.7-3.7l3.7,3.7L20,73.7L16.3,70z"/>
<path class="st0" d="M16.3,80l3.7-3.7l3.7,3.7L20,83.7L16.3,80z"/>
<path class="st0" d="M16.3,90l3.7-3.7l3.7,3.7L20,93.7L16.3,90z"/>
<path class="st0" d="M16.3,100l3.7-3.7l3.7,3.7l-3.7,3.7L16.3,100z"/>
<path class="st0" d="M16.3,110l3.7-3.7l3.7,3.7l-3.7,3.7L16.3,110z"/>
<path class="st0" d="M16.3,120l3.7-3.7l3.7,3.7l-3.7,3.7L16.3,120z"/>
<path class="st0" d="M16.3,130l3.7-3.7l3.7,3.7l-3.7,3.7L16.3,130z"/>
<path class="st0" d="M16.3,140l3.7-3.7l3.7,3.7l-3.7,3.7L16.3,140z"/>
<path class="st0" d="M16.3,150l3.7-3.7l3.7,3.7l-3.7,3.7L16.3,150z"/>
<path class="st0" d="M16.3,160l3.7-3.7l3.7,3.7l-3.7,3.7L16.3,160z"/>
<path class="st0" d="M16.3,170l3.7-3.7l3.7,3.7l-3.7,3.7L16.3,170z"/>
<path class="st0" d="M16.3,180l3.7-3.7l3.7,3.7l-3.7,3.7L16.3,180z"/>
<path class="st0" d="M16.3,190l3.7-3.7l3.7,3.7l-3.7,3.7L16.3,190z"/>
<path class="st0" d="M16.3,200l3.7-3.7l3.7,3.7l-3.7,3.7L16.3,200z"/>
<path class="st0" d="M26.6,0L30-3.4L33.4,0L30,3.4L26.6,0z"/>
<path class="st0" d="M26.6,10L30,6.6l3.4,3.4L30,13.4L26.6,10z"/>
<path class="st0" d="M26.6,20l3.4-3.4l3.4,3.4L30,23.4L26.6,20z"/>
<path class="st0" d="M26.6,30l3.4-3.4l3.4,3.4L30,33.4L26.6,30z"/>
<path class="st0" d="M26.6,40l3.4-3.4l3.4,3.4L30,43.4L26.6,40z"/>
<path class="st0" d="M26.6,50l3.4-3.4l3.4,3.4L30,53.4L26.6,50z"/>
<path class="st0" d="M26.6,60l3.4-3.4l3.4,3.4L30,63.4L26.6,60z"/>
<path class="st0" d="M26.6,70l3.4-3.4l3.4,3.4L30,73.4L26.6,70z"/>
<path class="st0" d="M26.6,80l3.4-3.4l3.4,3.4L30,83.4L26.6,80z"/>
<path class="st0" d="M26.6,90l3.4-3.4l3.4,3.4L30,93.4L26.6,90z"/>
<path class="st0" d="M26.6,100l3.4-3.4l3.4,3.4l-3.4,3.4L26.6,100z"/>
<path class="st0" d="M26.6,110l3.4-3.4l3.4,3.4l-3.4,3.4L26.6,110z"/>
<path class="st0" d="M26.6,120l3.4-3.4l3.4,3.4l-3.4,3.4L26.6,120z"/>
<path class="st0" d="M26.6,130l3.4-3.4l3.4,3.4l-3.4,3.4L26.6,130z"/>
<path class="st0" d="M26.6,140l3.4-3.4l3.4,3.4l-3.4,3.4L26.6,140z"/>
<path class="st0" d="M26.6,150l3.4-3.4l3.4,3.4l-3.4,3.4L26.6,150z"/>
<path class="st0" d="M26.6,160l3.4-3.4l3.4,3.4l-3.4,3.4L26.6,160z"/>
<path class="st0" d="M26.6,170l3.4-3.4l3.4,3.4l-3.4,3.4L26.6,170z"/>
<path class="st0" d="M26.6,180l3.4-3.4l3.4,3.4l-3.4,3.4L26.6,180z"/>
<path class="st0" d="M26.6,190l3.4-3.4l3.4,3.4l-3.4,3.4L26.6,190z"/>
<path class="st0" d="M26.6,200l3.4-3.4l3.4,3.4l-3.4,3.4L26.6,200z"/>
<path class="st0" d="M36.9,0L40-3.1L43.1,0L40,3.1L36.9,0z"/>
<path class="st0" d="M36.9,10L40,6.9l3.1,3.1L40,13.1L36.9,10z"/>
<path class="st0" d="M36.9,20l3.1-3.1l3.1,3.1L40,23.1L36.9,20z"/>
<path class="st0" d="M36.9,30l3.1-3.1l3.1,3.1L40,33.1L36.9,30z"/>
<path class="st0" d="M36.9,40l3.1-3.1l3.1,3.1L40,43.1L36.9,40z"/>
<path class="st0" d="M36.9,50l3.1-3.1l3.1,3.1L40,53.1L36.9,50z"/>
<path class="st0" d="M36.9,60l3.1-3.1l3.1,3.1L40,63.1L36.9,60z"/>
<path class="st0" d="M36.9,70l3.1-3.1l3.1,3.1L40,73.1L36.9,70z"/>
<path class="st0" d="M36.9,80l3.1-3.1l3.1,3.1L40,83.1L36.9,80z"/>
<path class="st0" d="M36.9,90l3.1-3.1l3.1,3.1L40,93.1L36.9,90z"/>
<path class="st0" d="M36.9,100l3.1-3.1l3.1,3.1l-3.1,3.1L36.9,100z"/>
<path class="st0" d="M36.9,110l3.1-3.1l3.1,3.1l-3.1,3.1L36.9,110z"/>
<path class="st0" d="M36.9,120l3.1-3.1l3.1,3.1l-3.1,3.1L36.9,120z"/>
<path class="st0" d="M36.9,130l3.1-3.1l3.1,3.1l-3.1,3.1L36.9,130z"/>
<path class="st0" d="M36.9,140l3.1-3.1l3.1,3.1l-3.1,3.1L36.9,140z"/>
<path class="st0" d="M36.9,150l3.1-3.1l3.1,3.1l-3.1,3.1L36.9,150z"/>
<path class="st0" d="M36.9,160l3.1-3.1l3.1,3.1l-3.1,3.1L36.9,160z"/>
<path class="st0" d="M36.9,170l3.1-3.1l3.1,3.1l-3.1,3.1L36.9,170z"/>
<path class="st0" d="M36.9,180l3.1-3.1l3.1,3.1l-3.1,3.1L36.9,180z"/>
<path class="st0" d="M36.9,190l3.1-3.1l3.1,3.1l-3.1,3.1L36.9,190z"/>
<path class="st0" d="M36.9,200l3.1-3.1l3.1,3.1l-3.1,3.1L36.9,200z"/>
<path class="st0" d="M47.3,0L50-2.7L52.7,0L50,2.7L47.3,0z"/>
<path class="st0" d="M47.3,10L50,7.3l2.7,2.7L50,12.7L47.3,10z"/>
<path class="st0" d="M47.3,20l2.7-2.7l2.7,2.7L50,22.7L47.3,20z"/>
<path class="st0" d="M47.3,30l2.7-2.7l2.7,2.7L50,32.7L47.3,30z"/>
<path class="st0" d="M47.3,40l2.7-2.7l2.7,2.7L50,42.7L47.3,40z"/>
<path class="st0" d="M47.3,50l2.7-2.7l2.7,2.7L50,52.7L47.3,50z"/>
<path class="st0" d="M47.3,60l2.7-2.7l2.7,2.7L50,62.7L47.3,60z"/>
<path class="st0" d="M47.3,70l2.7-2.7l2.7,2.7L50,72.7L47.3,70z"/>
<path class="st0" d="M47.3,80l2.7-2.7l2.7,2.7L50,82.7L47.3,80z"/>
<path class="st0" d="M47.3,90l2.7-2.7l2.7,2.7L50,92.7L47.3,90z"/>
<path class="st0" d="M47.3,100l2.7-2.7l2.7,2.7l-2.7,2.7L47.3,100z"/>
<path class="st0" d="M47.3,110l2.7-2.7l2.7,2.7l-2.7,2.7L47.3,110z"/>
<path class="st0" d="M47.3,120l2.7-2.7l2.7,2.7l-2.7,2.7L47.3,120z"/>
<path class="st0" d="M47.3,130l2.7-2.7l2.7,2.7l-2.7,2.7L47.3,130z"/>
<path class="st0" d="M47.3,140l2.7-2.7l2.7,2.7l-2.7,2.7L47.3,140z"/>
<path class="st0" d="M47.3,150l2.7-2.7l2.7,2.7l-2.7,2.7L47.3,150z"/>
<path class="st0" d="M47.3,160l2.7-2.7l2.7,2.7l-2.7,2.7L47.3,160z"/>
<path class="st0" d="M47.3,170l2.7-2.7l2.7,2.7l-2.7,2.7L47.3,170z"/>
<path class="st0" d="M47.3,180l2.7-2.7l2.7,2.7l-2.7,2.7L47.3,180z"/>
<path class="st0" d="M47.3,190l2.7-2.7l2.7,2.7l-2.7,2.7L47.3,190z"/>
<path class="st0" d="M47.3,200l2.7-2.7l2.7,2.7l-2.7,2.7L47.3,200z"/>
<path class="st0" d="M57.6,0L60-2.4L62.4,0L60,2.4L57.6,0z"/>
<path class="st0" d="M57.6,10L60,7.6l2.4,2.4L60,12.4L57.6,10z"/>
<path class="st0" d="M57.6,20l2.4-2.4l2.4,2.4L60,22.4L57.6,20z"/>
<path class="st0" d="M57.6,30l2.4-2.4l2.4,2.4L60,32.4L57.6,30z"/>
<path class="st0" d="M57.6,40l2.4-2.4l2.4,2.4L60,42.4L57.6,40z"/>
<path class="st0" d="M57.6,50l2.4-2.4l2.4,2.4L60,52.4L57.6,50z"/>
<path class="st0" d="M57.6,60l2.4-2.4l2.4,2.4L60,62.4L57.6,60z"/>
<path class="st0" d="M57.6,70l2.4-2.4l2.4,2.4L60,72.4L57.6,70z"/>
<path class="st0" d="M57.6,80l2.4-2.4l2.4,2.4L60,82.4L57.6,80z"/>
<path class="st0" d="M57.6,90l2.4-2.4l2.4,2.4L60,92.4L57.6,90z"/>
<path class="st0" d="M57.6,100l2.4-2.4l2.4,2.4l-2.4,2.4L57.6,100z"/>
<path class="st0" d="M57.6,110l2.4-2.4l2.4,2.4l-2.4,2.4L57.6,110z"/>
<path class="st0" d="M57.6,120l2.4-2.4l2.4,2.4l-2.4,2.4L57.6,120z"/>
<path class="st0" d="M57.6,130l2.4-2.4l2.4,2.4l-2.4,2.4L57.6,130z"/>
<path class="st0" d="M57.6,140l2.4-2.4l2.4,2.4l-2.4,2.4L57.6,140z"/>
<path class="st0" d="M57.6,150l2.4-2.4l2.4,2.4l-2.4,2.4L57.6,150z"/>
<path class="st0" d="M57.6,160l2.4-2.4l2.4,2.4l-2.4,2.4L57.6,160z"/>
<path class="st0" d="M57.6,170l2.4-2.4l2.4,2.4l-2.4,2.4L57.6,170z"/>
<path class="st0" d="M57.6,180l2.4-2.4l2.4,2.4l-2.4,2.4L57.6,180z"/>
<path class="st0" d="M57.6,190l2.4-2.4l2.4,2.4l-2.4,2.4L57.6,190z"/>
<path class="st0" d="M57.6,200l2.4-2.4l2.4,2.4l-2.4,2.4L57.6,200z"/>
<path class="st0" d="M68,0l2-2l2,2l-2,2L68,0z"/>
<path class="st0" d="M68,10l2-2l2,2l-2,2L68,10z"/>
<path class="st0" d="M68,20l2-2l2,2l-2,2L68,20z"/>
<path class="st0" d="M68,30l2-2l2,2l-2,2L68,30z"/>
<path class="st0" d="M68,40l2-2l2,2l-2,2L68,40z"/>
<path class="st0" d="M68,50l2-2l2,2l-2,2L68,50z"/>
<path class="st0" d="M68,60l2-2l2,2l-2,2L68,60z"/>
<path class="st0" d="M68,70l2-2l2,2l-2,2L68,70z"/>
<path class="st0" d="M68,80l2-2l2,2l-2,2L68,80z"/>
<path class="st0" d="M68,90l2-2l2,2l-2,2L68,90z"/>
<path class="st0" d="M68,100l2-2l2,2l-2,2L68,100z"/>
<path class="st0" d="M68,110l2-2l2,2l-2,2L68,110z"/>
<path class="st0" d="M68,120l2-2l2,2l-2,2L68,120z"/>
<path class="st0" d="M68,130l2-2l2,2l-2,2L68,130z"/>
<path class="st0" d="M68,140l2-2l2,2l-2,2L68,140z"/>
<path class="st0" d="M68,150l2-2l2,2l-2,2L68,150z"/>
<path class="st0" d="M68,160l2-2l2,2l-2,2L68,160z"/>
<path class="st0" d="M68,170l2-2l2,2l-2,2L68,170z"/>
<path class="st0" d="M68,180l2-2l2,2l-2,2L68,180z"/>
<path class="st0" d="M68,190l2-2l2,2l-2,2L68,190z"/>
<path class="st0" d="M68,200l2-2l2,2l-2,2L68,200z"/>
<path class="st0" d="M78.3,0L80-1.7L81.7,0L80,1.7L78.3,0z"/>
<path class="st0" d="M78.3,10L80,8.3l1.7,1.7L80,11.7L78.3,10z"/>
<path class="st0" d="M78.3,20l1.7-1.7l1.7,1.7L80,21.7L78.3,20z"/>
<path class="st0" d="M78.3,30l1.7-1.7l1.7,1.7L80,31.7L78.3,30z"/>
<path class="st0" d="M78.3,40l1.7-1.7l1.7,1.7L80,41.7L78.3,40z"/>
<path class="st0" d="M78.3,50l1.7-1.7l1.7,1.7L80,51.7L78.3,50z"/>
<path class="st0" d="M78.3,60l1.7-1.7l1.7,1.7L80,61.7L78.3,60z"/>
<path class="st0" d="M78.3,70l1.7-1.7l1.7,1.7L80,71.7L78.3,70z"/>
<path class="st0" d="M78.3,80l1.7-1.7l1.7,1.7L80,81.7L78.3,80z"/>
<path class="st0" d="M78.3,90l1.7-1.7l1.7,1.7L80,91.7L78.3,90z"/>
<path class="st0" d="M78.3,100l1.7-1.7l1.7,1.7l-1.7,1.7L78.3,100z"/>
<path class="st0" d="M78.3,110l1.7-1.7l1.7,1.7l-1.7,1.7L78.3,110z"/>
<path class="st0" d="M78.3,120l1.7-1.7l1.7,1.7l-1.7,1.7L78.3,120z"/>
<path class="st0" d="M78.3,130l1.7-1.7l1.7,1.7l-1.7,1.7L78.3,130z"/>
<path class="st0" d="M78.3,140l1.7-1.7l1.7,1.7l-1.7,1.7L78.3,140z"/>
<path class="st0" d="M78.3,150l1.7-1.7l1.7,1.7l-1.7,1.7L78.3,150z"/>
<path class="st0" d="M78.3,160l1.7-1.7l1.7,1.7l-1.7,1.7L78.3,160z"/>
<path class="st0" d="M78.3,170l1.7-1.7l1.7,1.7l-1.7,1.7L78.3,170z"/>
<path class="st0" d="M78.3,180l1.7-1.7l1.7,1.7l-1.7,1.7L78.3,180z"/>
<path class="st0" d="M78.3,190l1.7-1.7l1.7,1.7l-1.7,1.7L78.3,190z"/>
<path class="st0" d="M78.3,200l1.7-1.7l1.7,1.7l-1.7,1.7L78.3,200z"/>
<path class="st0" d="M88.6,0L90-1.4L91.4,0L90,1.4L88.6,0z"/>
<path class="st0" d="M88.6,10L90,8.6l1.4,1.4L90,11.4L88.6,10z"/>
<path class="st0" d="M88.6,20l1.4-1.4l1.4,1.4L90,21.4L88.6,20z"/>
<path class="st0" d="M88.6,30l1.4-1.4l1.4,1.4L90,31.4L88.6,30z"/>
<path class="st0" d="M88.6,40l1.4-1.4l1.4,1.4L90,41.4L88.6,40z"/>
<path class="st0" d="M88.6,50l1.4-1.4l1.4,1.4L90,51.4L88.6,50z"/>
<path class="st0" d="M88.6,60l1.4-1.4l1.4,1.4L90,61.4L88.6,60z"/>
<path class="st0" d="M88.6,70l1.4-1.4l1.4,1.4L90,71.4L88.6,70z"/>
<path class="st0" d="M88.6,80l1.4-1.4l1.4,1.4L90,81.4L88.6,80z"/>
<path class="st0" d="M88.6,90l1.4-1.4l1.4,1.4L90,91.4L88.6,90z"/>
<path class="st0" d="M88.6,100l1.4-1.4l1.4,1.4l-1.4,1.4L88.6,100z"/>
<path class="st0" d="M88.6,110l1.4-1.4l1.4,1.4l-1.4,1.4L88.6,110z"/>
<path class="st0" d="M88.6,120l1.4-1.4l1.4,1.4l-1.4,1.4L88.6,120z"/>
<path class="st0" d="M88.6,130l1.4-1.4l1.4,1.4l-1.4,1.4L88.6,130z"/>
<path class="st0" d="M88.6,140l1.4-1.4l1.4,1.4l-1.4,1.4L88.6,140z"/>
<path class="st0" d="M88.6,150l1.4-1.4l1.4,1.4l-1.4,1.4L88.6,150z"/>
<path class="st0" d="M88.6,160l1.4-1.4l1.4,1.4l-1.4,1.4L88.6,160z"/>
<path class="st0" d="M88.6,170l1.4-1.4l1.4,1.4l-1.4,1.4L88.6,170z"/>
<path class="st0" d="M88.6,180l1.4-1.4l1.4,1.4l-1.4,1.4L88.6,180z"/>
<path class="st0" d="M88.6,190l1.4-1.4l1.4,1.4l-1.4,1.4L88.6,190z"/>
<path class="st0" d="M88.6,200l1.4-1.4l1.4,1.4l-1.4,1.4L88.6,200z"/>
<path class="st0" d="M99,0l1-1l1,1l-1,1L99,0z"/>
<path class="st0" d="M99,10l1-1l1,1l-1,1L99,10z"/>
<path class="st0" d="M99,20l1-1l1,1l-1,1L99,20z"/>
<path class="st0" d="M99,30l1-1l1,1l-1,1L99,30z"/>
<path class="st0" d="M99,40l1-1l1,1l-1,1L99,40z"/>
<path class="st0" d="M99,50l1-1l1,1l-1,1L99,50z"/>
<path class="st0" d="M99,60l1-1l1,1l-1,1L99,60z"/>
<path class="st0" d="M99,70l1-1l1,1l-1,1L99,70z"/>
<path class="st0" d="M99,80l1-1l1,1l-1,1L99,80z"/>
<path class="st0" d="M99,90l1-1l1,1l-1,1L99,90z"/>
<path class="st0" d="M99,100l1-1l1,1l-1,1L99,100z"/>
<path class="st0" d="M99,110l1-1l1,1l-1,1L99,110z"/>
<path class="st0" d="M99,120l1-1l1,1l-1,1L99,120z"/>
<path class="st0" d="M99,130l1-1l1,1l-1,1L99,130z"/>
<path class="st0" d="M99,140l1-1l1,1l-1,1L99,140z"/>
<path class="st0" d="M99,150l1-1l1,1l-1,1L99,150z"/>
<path class="st0" d="M99,160l1-1l1,1l-1,1L99,160z"/>
<path class="st0" d="M99,170l1-1l1,1l-1,1L99,170z"/>
<path class="st0" d="M99,180l1-1l1,1l-1,1L99,180z"/>
<path class="st0" d="M99,190l1-1l1,1l-1,1L99,190z"/>
<path class="st0" d="M99,200l1-1l1,1l-1,1L99,200z"/>
</svg>
